<svg width="618" height="208" viewBox="0 0 618 208" fill="none" xmlns="http://www.w3.org/2000/svg">
<path d="M107.32 164.68H0.76V124.36L69.88 3.39999H127.48L58.36 124.36H107.32V81.16H159.16V124.36H179.32V164.68H159.16V205H107.32V164.68Z" fill="#DFB2F4"/>
<path d="M340.713 58.12C340.713 46.6 334.953 40.84 323.433 40.84H291.753C280.233 40.84 274.473 46.6 274.473 58.12V150.28C274.473 161.8 280.233 167.56 291.753 167.56H323.433C334.953 167.56 340.713 161.8 340.713 150.28V58.12ZM392.553 150.28C392.553 170.44 387.945 185.128 378.729 194.344C369.705 203.368 355.113 207.88 334.953 207.88H280.233C260.073 207.88 245.385 203.368 236.169 194.344C227.145 185.128 222.633 170.44 222.633 150.28V58.12C222.633 37.96 227.145 23.368 236.169 14.344C245.385 5.12799 260.073 0.519989 280.233 0.519989H334.953C355.113 0.519989 369.705 5.12799 378.729 14.344C387.945 23.368 392.553 37.96 392.553 58.12V150.28Z" fill="#45C0A4"/>
<path d="M545.17 164.68H438.61V124.36L507.73 3.39999H565.33L496.21 124.36H545.17V81.16H597.01V124.36H617.17V164.68H597.01V205H545.17V164.68Z" fill="#FEEE67"/>
</svg>
